<?xml version="1.0" encoding="utf-8"?>
<!-- Generator: Adobe Illustrator 19.0.0, SVG Export Plug-In . SVG Version: 6.00 Build 0)  -->
<svg version="1.1" id="Layer_1" xmlns="http://www.w3.org/2000/svg" xmlns:xlink="http://www.w3.org/1999/xlink" x="0px" y="0px"
	 viewBox="0 -1 34 46" style="enable-background:new 0 -1 34 46;" xml:space="preserve">
<style type="text/css">
	.st0{fill:#FFFFFF;}
</style>
<g id="XMLID_2_">
	<g id="XMLID_3_">
		<path id="XMLID_32_" d="M16.9,39c-3.3,0-6.1-2.7-6.1-6.1c0-1.8,0.8-3.4,2.1-4.5h-1.2V17.5l1.8,0.4c0.5,0.1,0.9,0.2,1.3,0.2
			c1.4,0,3.5-0.8,3.5-2.4c0-0.8-0.6-1.4-1.3-1.4c-0.3,0-1.2,0-1.2,1.5v1.5H5.1l0-1.5C5.1,8.7,11.2,5,17.3,5c2.9,0,5.7,1,7.8,2.8
			c2.4,2,3.9,5,3.9,7.9c0,4.3-2.6,7.7-7.1,9.5v3.2h-0.9c1.3,1.1,2.1,2.7,2.1,4.5C23,36.3,20.3,39,16.9,39z"/>
		<path id="XMLID_28_" class="st0" d="M17.3,6.5c2.5,0,4.9,0.8,6.8,2.4c1.9,1.6,3.4,4.2,3.4,6.7c0,4.4-3.1,7.2-7.1,8.4v2.8h-7.1
			v-7.6c0.5,0.1,1.1,0.2,1.6,0.2c2.2,0,5-1.3,5-3.9c0-1.6-1.2-2.9-2.8-2.9c-1.8,0-2.7,1.3-2.7,3H6.6C6.6,9.8,11.8,6.5,17.3,6.5
			 M16.9,28.4c2.5,0,4.6,2,4.6,4.6c0,2.5-2,4.6-4.6,4.6c-2.5,0-4.6-2.1-4.6-4.6C12.4,30.4,14.4,28.4,16.9,28.4 M17.3,3.5
			C9.4,3.5,3.6,8.6,3.6,15.7l0,3h3h3.7v0.6v7.6v2.5c-0.5,1-0.9,2.2-0.9,3.5c0,4.2,3.4,7.6,7.6,7.6c4.2,0,7.6-3.4,7.6-7.6
			c0-1.5-0.4-2.8-1.1-4v-2.1v-0.7c4.5-2.1,7.1-5.9,7.1-10.5c0-3.3-1.7-6.7-4.4-9C23.7,4.6,20.6,3.5,17.3,3.5L17.3,3.5z"/>
	</g>
</g>
</svg>
