<?xml version="1.0" encoding="utf-8"?>
<!-- Generator: Adobe Illustrator 19.0.0, SVG Export Plug-In . SVG Version: 6.00 Build 0)  -->
<svg version="1.1" id="Layer_1" xmlns="http://www.w3.org/2000/svg" xmlns:xlink="http://www.w3.org/1999/xlink" x="0px" y="0px"
	 viewBox="-1 -1 36 36" style="enable-background:new -1 -1 36 36;" xml:space="preserve">
<style type="text/css">
	.st0{fill:#FFFFFF;}
</style>
<g>
	<g>
		<path d="M21.8,32.8c-0.9,0-2.5-0.6-2.5-4.5l0-3c-0.5,0-2.2,0.1-2.2,0.1c-1.8,0.1-2.6,0.2-3.2,0.3c-0.4,0-0.6,0.1-1,0.1
			c-0.4,0-0.7,0.1-1,0.2c-0.3,0.1-0.7,0.3-1.3,0.3c-1.1,0-2-0.6-3.2-1.7C7.1,24.2,6,23.2,6,22c-0.7-0.2-1.4-0.6-2.3-1.3
			c-0.9-0.7-2.9-2.4-2.4-3.9c0.2-0.7,0.9-1.1,1.6-1.2c0-0.8,0.5-1.5,1.4-1.8c0.4-0.1,2.8-0.9,6.1-2.4c-0.1,0-0.2,0-0.2,0
			C9,11.4,8,10.7,6.7,9.5c-0.9-0.8-1.3-1.8-1-2.6C6,6.2,6.6,5.7,7.4,5.7c0.3,0,0.6,0.1,1,0.2c0,0,0,0,0,0c0,0,0.4,0.1,1.7,0.1
			c0.5,0,1.1,0,1.8,0c-0.3-0.3-0.6-0.7-1-1.2c-0.7-1-0.8-1.8-0.5-2.6c0.3-0.6,1-1,1.7-1c0.3,0,0.6,0.1,0.9,0.2
			c0.6,0.2,4.1,0.5,6.6,0.5c1.8,0,2.8,1.2,2.9,2.5c0,0.3,0,0.7-0.2,1c0.6,0,1.2,0.1,1.5,0.1c1.4,0.3,1.8,1.2,1.9,1.7
			C26,8.1,25.6,9,24.6,9.8c-0.1,0.1-0.1,0.1-0.2,0.2c0.9,0,1.9,0.2,2.6,0.4c1.4,0.5,2.2,1.7,2,3.1c-0.1,0.5-0.3,0.9-0.5,1.2
			c1.2,0.1,2.8,0.4,3.7,1.3c0.5,0.5,0.7,1.2,0.7,1.9c-0.1,1.9-1.4,3.1-3.4,3.1c-0.5,0-1.1-0.1-1.7-0.2c-0.3-0.1-0.9-0.1-2.1-0.2
			c0.1,0.1,0.2,0.2,0.3,0.3c0.5,0.8,0.3,1.6,0.2,2.1c0,0.2-0.1,0.4-0.1,0.5l0,2.4c0,1.8-0.1,6.8-3.9,7L21.8,32.8z M12,15.9
			c-0.2,0-0.4,0.1-0.5,0.1c0.5,0,1.1,0,1.6,0c-0.1-0.1-0.2-0.2-0.3-0.3C12.5,15.8,12.3,15.8,12,15.9z M20.3,14.9
			c0,0.3,0,0.5-0.1,0.7c0,0,0,0.1,0,0.1c1.8-0.1,3.1-0.2,4-0.3c-0.4,0-0.9-0.1-1.3-0.2C22.1,15.1,21.2,15,20.3,14.9z"/>
		<path class="st0" d="M12.1,2.7c0.1,0,0.3,0,0.4,0.1c1,0.4,5,0.6,7.2,0.6c2,0,1.8,2.3-0.3,2.5c-1.2,0.1-3.4,0.1-4,0.1
			c-0.1,0-0.3,0-0.5,0c-0.6,0-1.5-0.2-2.8-2.1C11.5,3.1,11.7,2.7,12.1,2.7 M20.9,6.8c1,0,2.4,0.1,2.7,0.1c1.4,0.3,0.7,1.2,0.1,1.6
			c-0.6,0.4-1.1,0.9-2.3,1.7c-1,0.7-1.6,1-2.3,1.4c0.5,0.1,1.2,0.1,1.9,0.1c0.7,0,1.3-0.1,1.6-0.2c0.1-0.1,0.6-0.1,1.1-0.1
			c0.9,0,2.1,0.1,2.8,0.3c1.5,0.5,1.2,2.3-0.2,2.3c-0.1,0-0.2,0-0.3,0c-1.1-0.2-3.2-0.4-5.6-0.7c-1.9-0.2-2.6-0.6-3.3-0.8
			c-0.9,0.3-2.4,1.1-5.6,1.9c-3.1,0.8-5.8,1.2-6.3,1.3c-0.1,0-0.2,0-0.3,0c-0.7,0-0.8-0.4-0.3-0.6c0.5-0.1,3.5-1.1,7.4-3
			c4.1-2,4.8-2.8,5.3-3.2c-0.7,0.1-1.2,0.1-2.5,0.2c-1.3,0.1-2.5,0.2-3.2,0.3c-0.7,0.1-1,0.4-1.5,0.4C9.7,9.9,9,9.6,7.7,8.4
			C7,7.8,6.9,7.2,7.4,7.2c0.1,0,0.2,0,0.4,0.1c0.3,0.1,1.1,0.2,2.3,0.2c1.1,0,2.4,0,3.8-0.1c2.9-0.1,5.7-0.4,5.7-0.5
			C19.6,6.8,20.2,6.8,20.9,6.8 M15.1,14c0.7,0,1.8,0.1,2.9,0.2c1.2,0.1,0.7,0.9,0.7,1.6c0,0.1,0,1.4,0,1.4c1.4-0.1,6.3-0.1,7.4-1
			c0.1-0.1,0.7-0.2,1.5-0.2c1.6,0,3.8,0.4,3.7,1.6c-0.1,1-0.5,1.7-1.9,1.7c-0.4,0-0.8-0.1-1.4-0.2c-0.8-0.2-2-0.2-3.5-0.2
			c-2.3,0-5.1,0.1-7.3,0.3c-3.7,0.2-6.7,0.6-7.7,0.7c-1.6,0.2-2,0.7-2.7,0.7c-0.4,0-1-0.3-2.1-1.1c-1.4-1-2.4-2.4-1.6-2.4
			c0.1,0,0.3,0,0.5,0.1c1.4,0.4,2.5,0.5,3.7,0.5c1.2,0,2.3-0.1,3.6-0.1c1.8,0,3.7-0.1,4.4-0.2L15.2,16c0-0.3-0.4-0.8-0.9-1
			c-0.6-0.2-0.6-0.7,0.2-0.9C14.6,14.1,14.8,14,15.1,14 M21.9,21.3c0.8,0,1.6,0,2,0.1c1.2,0.1,0.4,1,0.4,2l0,2.4
			c0,2.5-0.4,5.4-2.5,5.5c0,0,0,0,0,0c-0.9,0-1-2.2-1-3l-0.1-4.6c-0.6,0.1-1.7,0.1-3.7,0.2c-2.8,0.2-3.4,0.3-4.2,0.4
			c-1.1,0.1-1.6,0.5-2.1,0.5c-0.5,0-1-0.3-2.2-1.3c-1.1-1-1.1-1.5-0.5-1.5c0.1,0,0.3,0,0.5,0.1c0.5,0.1,1.4,0.2,2.6,0.2
			c3.7,0,9.5-0.5,9.6-0.6C20.6,21.4,21.2,21.3,21.9,21.3 M12.1-0.3L12.1-0.3c-1.3,0-2.5,0.7-3,1.8C8.8,2.1,8.5,3.2,9,4.5
			c-0.2,0-0.3,0-0.3,0C8.2,4.3,7.8,4.2,7.4,4.2C6,4.2,4.8,5.1,4.3,6.3c-0.5,1.4,0,3,1.4,4.3c0.3,0.3,0.6,0.5,0.9,0.8
			c-1.4,0.6-2.4,0.9-2.6,0.9l0,0l-0.1,0c-1.1,0.3-1.9,1.1-2.2,2c-0.8,0.4-1.5,1-1.7,1.9c-0.8,2.4,1.5,4.6,2.9,5.6
			c0.6,0.5,1.2,0.9,1.9,1.2c0.2,0.8,0.8,1.6,1.8,2.5c1.5,1.3,2.7,2.1,4.2,2.1c0.8,0,1.4-0.2,1.8-0.4c0.2-0.1,0.3-0.1,0.5-0.1
			c0.3,0,0.6-0.1,1-0.1c0.6-0.1,1.4-0.2,3.2-0.3l0.5,0c0,0,0.1,0,0.1,0l0,1.5c0,1.8,0.4,6,4,6h0.1l0.1,0c3.4-0.2,5.2-3,5.3-8.5
			l0-2.3c0-0.1,0-0.1,0-0.2c0.1-0.2,0.2-0.6,0.2-1.1c0.6,0.1,1.2,0.2,1.7,0.2c2.8,0,4.7-1.8,4.9-4.5c0.1-1.1-0.3-2.2-1.1-3
			c-0.7-0.8-1.7-1.2-2.7-1.5c0.2-2-1-3.8-3-4.5c-0.1,0-0.2-0.1-0.3-0.1c0.2-0.6,0.3-1.3,0.1-2c-0.1-0.7-0.8-2.3-3.1-2.8
			c-0.1,0-0.1,0-0.2,0c-0.2-1.8-1.7-3.6-4.4-3.6c-2.4,0-5.5-0.2-6.2-0.4C13-0.2,12.5-0.3,12.1-0.3L12.1-0.3z"/>
	</g>
</g>
</svg>
